<svg id="Layer_1" data-name="Layer 1" xmlns="http://www.w3.org/2000/svg" viewBox="0 0 83 83"><defs><style>.cls-1{fill:#fff;}.cls-2{fill:#0e4989;}</style></defs><circle class="cls-1" cx="41.5" cy="41.5" r="41.5"/><path class="cls-2" d="M64.5,41.78A2.9,2.9,0,0,1,63,43.66a2.54,2.54,0,0,1-2.78-.28,6.15,6.15,0,0,1-.53-.49L42.85,26a1.63,1.63,0,0,0-2.26-.44,1.67,1.67,0,0,0-.44.44l-17,17a2.65,2.65,0,0,1-3.38.6,2.6,2.6,0,0,1-1-3.56,2.13,2.13,0,0,1,.16-.25,5.37,5.37,0,0,1,.5-.57l17-17A6.92,6.92,0,0,1,46.25,22l.22.22L51,26.77l.43.4V24.59a2.59,2.59,0,0,1,.89-2.12,2.52,2.52,0,0,1,2.8-.45,2.57,2.57,0,0,1,1.59,2.54v7.32a1.26,1.26,0,0,0,.42,1l6,6a4.43,4.43,0,0,1,1.35,2Z"/><path class="cls-2" d="M45.77,62.89V51.2H37.21V62.89h-7.4A4.75,4.75,0,0,1,25,58.78a6,6,0,0,1,0-.85V47.24a1.79,1.79,0,0,1,.58-1.39Q33,38.4,40.47,30.92a1.35,1.35,0,0,1,1.87-.37,1.45,1.45,0,0,1,.37.37L57.5,45.87a1.83,1.83,0,0,1,.59,1.39V58.17a4.74,4.74,0,0,1-3.94,4.68,5.26,5.26,0,0,1-.89.07H46.12Z"/></svg>