<svg id="Layer_1" data-name="Layer 1" xmlns="http://www.w3.org/2000/svg" viewBox="0 0 83 83"><defs><style>.cls-1{fill:#fff;}.cls-2{fill:#0e4989;}</style></defs><circle class="cls-1" cx="41.5" cy="41.5" r="41.5"/><path class="cls-2" d="M74.73,39.55v3.89a5.54,5.54,0,0,1-.12.69c-.21,1.43-.33,2.88-.63,4.29A33.25,33.25,0,0,1,34.53,74h0a33.16,33.16,0,0,1-18-54.36A32.63,32.63,0,0,1,35.72,8.83c1.25-.22,2.52-.35,3.78-.52h3.89a2.78,2.78,0,0,0,.5.11A31.61,31.61,0,0,1,58.39,13,32.81,32.81,0,0,1,74.16,35.83C74.44,37,74.56,38.29,74.73,39.55ZM41.5,14.31A27.19,27.19,0,1,0,68.66,41.55,27.19,27.19,0,0,0,41.5,14.31Z"/><path class="cls-2" d="M44.5,48.54v9.21a3,3,0,0,1-3.14,2.85,3.13,3.13,0,0,1-.86-.17,2.88,2.88,0,0,1-2-2.58,4.51,4.51,0,0,1,0-.52V39.76a3,3,0,0,1,5.94-.88,3.47,3.47,0,0,1,.06.45v9.21Z"/><path class="cls-2" d="M41.5,22.38a4,4,0,1,1-4,4A4,4,0,0,1,41.5,22.38Z"/></svg>