<svg id="Layer_1" data-name="Layer 1" xmlns="http://www.w3.org/2000/svg" viewBox="0 0 83 83"><defs><style>.cls-1{fill:#fff;}.cls-2{fill:#0e4989;}</style></defs><circle class="cls-1" cx="41.5" cy="41.5" r="41.5"/><path class="cls-2" d="M19,24.19A11.09,11.09,0,0,1,20.63,24H62.37a12.94,12.94,0,0,1,1.75.25l-.47.51L44.23,44.13a3.53,3.53,0,0,1-5,.48,3.11,3.11,0,0,1-.48-.48L19.36,24.71a3,3,0,0,0-.4-.31Z"/><path class="cls-2" d="M19,58.82,34.56,43.23c.86.85,1.77,1.75,2.66,2.66a5.94,5.94,0,0,0,3.53,1.8,5.62,5.62,0,0,0,4.57-1.39c1-.86,1.86-1.81,2.77-2.73a2.34,2.34,0,0,0,.29-.41L64,58.81a15.2,15.2,0,0,1-1.78.23H20.82A16.38,16.38,0,0,1,19,58.82Z"/><path class="cls-2" d="M17.17,26,32.7,41.54,17.23,57c-.09-.36-.19-.73-.26-1.1a3,3,0,0,1,0-.6V27.75A14.64,14.64,0,0,1,17.17,26Z"/><path class="cls-2" d="M65.84,26a14.22,14.22,0,0,1,.2,1.71V55.28a15.28,15.28,0,0,1-.22,1.77L50.31,41.53Z"/></svg>