<svg id="Layer_1" data-name="Layer 1" xmlns="http://www.w3.org/2000/svg" viewBox="0 0 83 83"><defs><style>.cls-1{fill:#fff;}.cls-2{fill:#0e4989;}</style></defs><circle class="cls-1" cx="41.5" cy="41.5" r="41.5"/><path class="cls-2" d="M60.89,64.49H22.09l-.16-.07A3.94,3.94,0,0,1,19.4,63a4.77,4.77,0,0,1-.9-2.06V29.29h46V60.2a3.94,3.94,0,0,1-1.68,3.48A9.62,9.62,0,0,1,60.89,64.49ZM29.5,47A12.13,12.13,0,1,0,41.63,34.87h0A12.16,12.16,0,0,0,29.5,47Z"/><path class="cls-2" d="M18.5,26.59V22.1a8.17,8.17,0,0,1,.41-1.27,4,4,0,0,1,3.93-2.32H60.41a4,4,0,0,1,4,3.65c.12,1.38,0,2.77,0,4.17a1.13,1.13,0,0,1,0,.26Zm21.75-5.38H38.9a1.35,1.35,0,0,0,0,2.69h2.69a1.28,1.28,0,0,0,1.33-1.23v-.1a1.3,1.3,0,0,0-1.25-1.35H40.25Zm8.07,2.69h1.34a1.35,1.35,0,0,0,0-2.69H46.92a1.28,1.28,0,0,0-1.31,1.25v.1a1.3,1.3,0,0,0,1.26,1.34h1.45Zm8.06,0h1.39a1.29,1.29,0,0,0,1.31-1.27v-.08a1.26,1.26,0,0,0-1.19-1.33H55a1.28,1.28,0,0,0-1.29,1.27v.06A1.3,1.3,0,0,0,55,23.91h1.42Z"/><path class="cls-2" d="M44.21,45.61H38.94c.07-.74.12-1.46.22-2.18a14.17,14.17,0,0,1,1.26-4.51,6,6,0,0,1,.74-1.11c.31-.36.56-.37.85,0A7.27,7.27,0,0,1,43,39.37,17.8,17.8,0,0,1,44.21,45.61Z"/><path class="cls-2" d="M39,48.35h5.26c-.07.73-.12,1.45-.21,2.17A14.17,14.17,0,0,1,42.75,55,7.86,7.86,0,0,1,42,56.17a.45.45,0,0,1-.61.18.39.39,0,0,1-.18-.18,9.84,9.84,0,0,1-1-1.56A17.93,17.93,0,0,1,39,48.35Z"/><path class="cls-2" d="M37.64,38.5a23.25,23.25,0,0,0-1.39,7.09H32.36A9.07,9.07,0,0,1,37.64,38.5Z"/><path class="cls-2" d="M50.83,45.61H46.92a23.31,23.31,0,0,0-1.39-7.1A9.09,9.09,0,0,1,50.83,45.61Z"/><path class="cls-2" d="M37.67,55.54a9.58,9.58,0,0,1-5.38-7.19h4A23.27,23.27,0,0,0,37.67,55.54Z"/><path class="cls-2" d="M46.91,48.35h4a9.52,9.52,0,0,1-5.36,7.18A23.78,23.78,0,0,0,46.91,48.35Z"/></svg>