<svg id="Layer_1" data-name="Layer 1" xmlns="http://www.w3.org/2000/svg" viewBox="0 0 83 83"><defs><style>.cls-1{fill:#fff;}.cls-2{fill:#0e4989;}</style></defs><circle class="cls-1" cx="41.5" cy="41.5" r="41.5"/><path class="cls-2" d="M39.8,68.64a2.22,2.22,0,0,1-1.33-2.74H45.8a2.17,2.17,0,0,1-1.33,2.74Z"/><path class="cls-2" d="M55,46.74A16.52,16.52,0,0,1,51.5,50a6.16,6.16,0,0,0-2,2,5.74,5.74,0,0,0-.77,3v3.23a2.83,2.83,0,0,1-2.65,3,2,2,0,0,1-.35,0h-7a2.82,2.82,0,0,1-3.06-2.56,2.26,2.26,0,0,1,0-.52V54.34a5,5,0,0,0-2.27-4,17.92,17.92,0,0,1-5.08-5,16.43,16.43,0,0,1-2.68-11.6,16.76,16.76,0,0,1,14.1-14.29c1-.13,2-.16,2.94-.24v.2c-.88.8-.91,1-.19,2,.57.76,1.13,1.53,1.71,2.29A1,1,0,0,1,44.41,25a1.09,1.09,0,0,1-1.22.41l-3.09-.45c-.77-.12-1.19.15-1.31.93q-.4,2.64-.76,5.3a1,1,0,0,0,.86,1.12h0c1,.15,2,.27,3,.44a2.34,2.34,0,0,1,.93.32.91.91,0,0,1,.1,1.28.86.86,0,0,1-.26.21c-.85.66-1.72,1.3-2.58,2-.71.53-.78,1-.26,1.69l3.06,4.07a1,1,0,0,0,1.34.44,1.06,1.06,0,0,0,.29-.22c.85-.63,1.7-1.26,2.54-1.9a1,1,0,0,1,1.22-.19,1,1,0,0,1,.43,1.16c-.16,1.09-.32,2.17-.47,3.25A.94.94,0,0,0,48.92,46a1.38,1.38,0,0,0,.2,0c1.83.29,3.67.54,5.5.8A2.57,2.57,0,0,0,55,46.74ZM35.2,25l-.43.27a13.07,13.07,0,0,0-3.33,18.18,12.9,12.9,0,0,0,2,2.29,15.92,15.92,0,0,0,4.42,2.66,5.66,5.66,0,0,1,2.47,2.25,6.22,6.22,0,0,1,.87,3h1.85A7.89,7.89,0,0,0,42.12,50a8.14,8.14,0,0,0-4.28-3.68A11.15,11.15,0,0,1,35.56,27l.61-.44Zm7.85,30.62H41.23v2.72h1.82Z"/><path class="cls-2" d="M64,20.83l.15.14c.69.92,1.38,1.84,2.12,2.81l-2.06,1.55a2.82,2.82,0,0,0-.73,3.92,2.79,2.79,0,0,0,2.15,1.22l2.44.35-.53,3.68L65,34.14a2.71,2.71,0,0,0-2.91,1.3,2.66,2.66,0,0,0,.13,3.09c.51.74,1.07,1.44,1.65,2.22l-3,2.24c-.52-.7-1-1.38-1.55-2.06a2.75,2.75,0,0,0-2.13-1.22,2.82,2.82,0,0,0-3,2.63h0c-.1.8-.22,1.6-.34,2.43l-3.69-.52c.12-.9.24-1.75.36-2.6a2.69,2.69,0,0,0-1.29-2.86,2.66,2.66,0,0,0-3.09.1c-.74.51-1.44,1.07-2.23,1.65l-2.23-3c.8-.62,1.6-1.17,2.33-1.8a2.75,2.75,0,0,0,.31-3.88,2.78,2.78,0,0,0-1.19-.81,7.67,7.67,0,0,0-1.5-.3l-1.73-.25v-.35c.16-1.1.32-2.19.49-3.33l2.65.36a2.7,2.7,0,0,0,2.81-1.3,2.64,2.64,0,0,0-.09-3c-.51-.76-1.08-1.48-1.67-2.27l3-2.24,1.55,2.07a2.81,2.81,0,0,0,5.13-1.38c.11-.81.23-1.63.35-2.47h.41l3.28.47c-.13.9-.25,1.75-.37,2.61a2.8,2.8,0,0,0,4.39,2.74A21.56,21.56,0,0,0,64,20.83ZM54,25.09a5.6,5.6,0,1,0,5.59,5.61h0A5.66,5.66,0,0,0,54,25.09Z"/><path class="cls-2" d="M25.32,41.64a5.7,5.7,0,0,0-4.85,5.59,5.58,5.58,0,0,0,3.94,5.32A5.68,5.68,0,0,0,31,49.8c1.15.94,2.58,1.55,3.25,3a.62.62,0,0,1-.14.86c-.56.52-1.07,1.08-1.62,1.66L30.72,54.1a1.89,1.89,0,0,0-3.12,1.26c-.14.67-.29,1.35-.44,2.08h-2c-.1,0-.24-.22-.28-.36-.15-.63-.26-1.28-.42-1.91a1.83,1.83,0,0,0-3-1.17c-.62.4-1.22.83-1.92,1.31-.27-.29-.54-.59-.82-.88s-.56-.53-.85-.81c.44-.64.86-1.23,1.26-1.83a1.86,1.86,0,0,0-1.18-3c-.6-.15-1.2-.29-1.81-.39-.32,0-.41-.2-.39-.49s0-.43,0-.64c0-1.19,0-1.19,1.19-1.43.38-.07.76-.14,1.14-.24a1.84,1.84,0,0,0,1.42-2.2,1.9,1.9,0,0,0-.27-.64c-.41-.66-.87-1.28-1.28-1.88l1.72-1.73c.46.32,1,.64,1.5,1a1.93,1.93,0,0,0,2.74,0,1.89,1.89,0,0,0,.57-1.28,2.17,2.17,0,0,1,.07-.24Z"/><path class="cls-2" d="M16.44,21l1.08-1.52L24,24.14,23,25.65Z"/><path class="cls-2" d="M15.35,32.27l-.46-1.8,7.45-1.87.45,1.81Z"/><path class="cls-2" d="M26.23,14.36l1.9,7.45-1.8.47-1.9-7.44Z"/><path class="cls-2" d="M45.84,62.16V64H38.5V62.21Z"/><path class="cls-2" d="M65.1,58.61,63.9,60l-5.58-4.65L59.5,54Z"/><path class="cls-2" d="M59.88,49.07H66c.13,0,.35.15.35.24v1.6H59.86Z"/><path class="cls-2" d="M54.27,63V56.58h1.82V63Z"/><path class="cls-2" d="M55.6,45.84c.18-1.19.34-2.39.54-3.57a.88.88,0,0,1,1-.71c.53,0,.72.36.52.84A12.15,12.15,0,0,1,55.6,45.84Z"/></svg>